<mxfile host="app.diagrams.net" agent="Mozilla/5.0 (Windows NT 10.0; Win64; x64) AppleWebKit/537.36 (KHTML, like Gecko) Chrome/137.0.0.0 Safari/537.36" version="27.1.4">
  <diagram name="Page-1" id="EvwWkzHTIeJi27feD90p">
    <mxGraphModel dx="1251" dy="660" grid="1" gridSize="10" guides="1" tooltips="1" connect="1" arrows="1" fold="1" page="1" pageScale="1" pageWidth="850" pageHeight="1100" math="0" shadow="0">
      <root>
        <mxCell id="0" />
        <mxCell id="1" parent="0" />
        <mxCell id="7doIN0OeK99ZuD3vMfqk-17" style="edgeStyle=orthogonalEdgeStyle;rounded=0;orthogonalLoop=1;jettySize=auto;html=1;entryX=0.5;entryY=0;entryDx=0;entryDy=0;" edge="1" parent="1" source="7doIN0OeK99ZuD3vMfqk-2" target="7doIN0OeK99ZuD3vMfqk-14">
          <mxGeometry relative="1" as="geometry" />
        </mxCell>
        <mxCell id="7doIN0OeK99ZuD3vMfqk-2" value="" style="rounded=0;whiteSpace=wrap;html=1;fillColor=#dae8fc;gradientColor=#7ea6e0;strokeColor=#6c8ebf;" vertex="1" parent="1">
          <mxGeometry x="310" y="100" width="200" height="100" as="geometry" />
        </mxCell>
        <mxCell id="7doIN0OeK99ZuD3vMfqk-1" value="" style="sketch=0;outlineConnect=0;fontColor=#232F3E;gradientColor=none;fillColor=#232F3D;strokeColor=none;dashed=0;verticalLabelPosition=bottom;verticalAlign=top;align=center;html=1;fontSize=12;fontStyle=0;aspect=fixed;pointerEvents=1;shape=mxgraph.aws4.source_code;" vertex="1" parent="1">
          <mxGeometry x="470" y="110" width="29.23" height="40" as="geometry" />
        </mxCell>
        <mxCell id="7doIN0OeK99ZuD3vMfqk-3" value="&lt;b&gt;Module&lt;/b&gt;" style="text;html=1;align=center;verticalAlign=middle;resizable=0;points=[];autosize=1;strokeColor=none;fillColor=none;" vertex="1" parent="1">
          <mxGeometry x="375" y="100" width="70" height="30" as="geometry" />
        </mxCell>
        <mxCell id="7doIN0OeK99ZuD3vMfqk-4" value="&lt;b&gt;Project Code&lt;/b&gt;" style="rounded=0;whiteSpace=wrap;html=1;fillColor=#f8cecc;gradientColor=#ea6b66;strokeColor=#b85450;" vertex="1" parent="1">
          <mxGeometry y="310" width="190" height="100" as="geometry" />
        </mxCell>
        <mxCell id="7doIN0OeK99ZuD3vMfqk-5" value="" style="sketch=0;outlineConnect=0;fontColor=#232F3E;gradientColor=none;fillColor=#232F3D;strokeColor=none;dashed=0;verticalLabelPosition=bottom;verticalAlign=top;align=center;html=1;fontSize=12;fontStyle=0;aspect=fixed;pointerEvents=1;shape=mxgraph.aws4.source_code;" vertex="1" parent="1">
          <mxGeometry x="150" y="320" width="29.23" height="40" as="geometry" />
        </mxCell>
        <mxCell id="7doIN0OeK99ZuD3vMfqk-6" style="edgeStyle=orthogonalEdgeStyle;rounded=0;orthogonalLoop=1;jettySize=auto;html=1;entryX=0.464;entryY=-0.002;entryDx=0;entryDy=0;entryPerimeter=0;" edge="1" parent="1" source="7doIN0OeK99ZuD3vMfqk-2" target="7doIN0OeK99ZuD3vMfqk-4">
          <mxGeometry relative="1" as="geometry" />
        </mxCell>
        <mxCell id="7doIN0OeK99ZuD3vMfqk-7" value="&lt;b&gt;refer module&lt;/b&gt;" style="text;html=1;align=center;verticalAlign=middle;resizable=0;points=[];autosize=1;strokeColor=none;fillColor=none;" vertex="1" parent="1">
          <mxGeometry x="90" y="250" width="100" height="30" as="geometry" />
        </mxCell>
        <mxCell id="7doIN0OeK99ZuD3vMfqk-8" value="&lt;b&gt;Project Code&lt;/b&gt;" style="rounded=0;whiteSpace=wrap;html=1;fillColor=#f8cecc;gradientColor=#ea6b66;strokeColor=#b85450;" vertex="1" parent="1">
          <mxGeometry x="270" y="310" width="190" height="100" as="geometry" />
        </mxCell>
        <mxCell id="7doIN0OeK99ZuD3vMfqk-9" value="&lt;b&gt;Expense&lt;/b&gt;" style="text;html=1;align=center;verticalAlign=middle;resizable=0;points=[];autosize=1;strokeColor=none;fillColor=none;" vertex="1" parent="1">
          <mxGeometry x="330" y="410" width="70" height="30" as="geometry" />
        </mxCell>
        <mxCell id="7doIN0OeK99ZuD3vMfqk-10" style="edgeStyle=orthogonalEdgeStyle;rounded=0;orthogonalLoop=1;jettySize=auto;html=1;entryX=0.339;entryY=-0.002;entryDx=0;entryDy=0;entryPerimeter=0;" edge="1" parent="1" source="7doIN0OeK99ZuD3vMfqk-2" target="7doIN0OeK99ZuD3vMfqk-8">
          <mxGeometry relative="1" as="geometry" />
        </mxCell>
        <mxCell id="7doIN0OeK99ZuD3vMfqk-12" value="provider" style="ellipse;whiteSpace=wrap;html=1;aspect=fixed;fillColor=#fff2cc;gradientColor=#ffd966;strokeColor=#d6b656;" vertex="1" parent="1">
          <mxGeometry x="139.62" y="360" width="50" height="50" as="geometry" />
        </mxCell>
        <mxCell id="7doIN0OeK99ZuD3vMfqk-13" value="provider" style="ellipse;whiteSpace=wrap;html=1;aspect=fixed;fillColor=#fff2cc;gradientColor=#ffd966;strokeColor=#d6b656;" vertex="1" parent="1">
          <mxGeometry x="410" y="360" width="50" height="50" as="geometry" />
        </mxCell>
        <mxCell id="7doIN0OeK99ZuD3vMfqk-14" value="&lt;b&gt;Project Code&lt;/b&gt;" style="rounded=0;whiteSpace=wrap;html=1;fillColor=#f8cecc;gradientColor=#ea6b66;strokeColor=#b85450;" vertex="1" parent="1">
          <mxGeometry x="540" y="310" width="190" height="100" as="geometry" />
        </mxCell>
        <mxCell id="7doIN0OeK99ZuD3vMfqk-15" value="&lt;b&gt;Amazon&lt;/b&gt;" style="text;html=1;align=center;verticalAlign=middle;resizable=0;points=[];autosize=1;strokeColor=none;fillColor=none;" vertex="1" parent="1">
          <mxGeometry x="600" y="418" width="70" height="30" as="geometry" />
        </mxCell>
        <mxCell id="7doIN0OeK99ZuD3vMfqk-16" value="provider" style="ellipse;whiteSpace=wrap;html=1;aspect=fixed;fillColor=#fff2cc;gradientColor=#ffd966;strokeColor=#d6b656;" vertex="1" parent="1">
          <mxGeometry x="680" y="360" width="50" height="50" as="geometry" />
        </mxCell>
      </root>
    </mxGraphModel>
  </diagram>
</mxfile>
